<mxfile host="app.diagrams.net" agent="Mozilla/5.0 (Windows NT 10.0; Win64; x64) AppleWebKit/537.36 (KHTML, like Gecko) Chrome/131.0.0.0 Safari/537.36" version="25.0.3">
  <diagram id="C5RBs43oDa-KdzZeNtuy" name="Page-1">
    <mxGraphModel dx="1434" dy="786" grid="1" gridSize="10" guides="1" tooltips="1" connect="1" arrows="1" fold="1" page="1" pageScale="1" pageWidth="827" pageHeight="1169" math="0" shadow="0">
      <root>
        <mxCell id="WIyWlLk6GJQsqaUBKTNV-0" />
        <mxCell id="WIyWlLk6GJQsqaUBKTNV-1" parent="WIyWlLk6GJQsqaUBKTNV-0" />
        <mxCell id="IrOff0IZFetIZdWrxFY4-18" style="edgeStyle=orthogonalEdgeStyle;rounded=0;orthogonalLoop=1;jettySize=auto;html=1;entryX=0.75;entryY=1;entryDx=0;entryDy=0;" edge="1" parent="WIyWlLk6GJQsqaUBKTNV-1" source="WIyWlLk6GJQsqaUBKTNV-3" target="IrOff0IZFetIZdWrxFY4-9">
          <mxGeometry relative="1" as="geometry" />
        </mxCell>
        <mxCell id="WIyWlLk6GJQsqaUBKTNV-3" value="Third-Party&lt;div&gt;Payemnt APIs&lt;/div&gt;&lt;div&gt;&lt;ul&gt;&lt;li style=&quot;text-align: justify;&quot;&gt;Telebirr&lt;/li&gt;&lt;li style=&quot;text-align: justify;&quot;&gt;CbeBirr&lt;/li&gt;&lt;li style=&quot;text-align: justify;&quot;&gt;BOA Visa..&lt;/li&gt;&lt;/ul&gt;&lt;/div&gt;" style="rounded=1;whiteSpace=wrap;html=1;fontSize=12;glass=0;strokeWidth=1;shadow=0;align=center;fillColor=#d5e8d4;strokeColor=#82b366;" parent="WIyWlLk6GJQsqaUBKTNV-1" vertex="1">
          <mxGeometry x="370" y="247.5" width="150" height="100" as="geometry" />
        </mxCell>
        <mxCell id="IrOff0IZFetIZdWrxFY4-17" style="edgeStyle=orthogonalEdgeStyle;rounded=0;orthogonalLoop=1;jettySize=auto;html=1;entryX=0;entryY=0.5;entryDx=0;entryDy=0;" edge="1" parent="WIyWlLk6GJQsqaUBKTNV-1" source="IrOff0IZFetIZdWrxFY4-1" target="IrOff0IZFetIZdWrxFY4-9">
          <mxGeometry relative="1" as="geometry" />
        </mxCell>
        <mxCell id="IrOff0IZFetIZdWrxFY4-1" value="Digital Equb App&lt;div&gt;Equbtegns&lt;/div&gt;&lt;div&gt;&lt;ul&gt;&lt;li style=&quot;text-align: justify;&quot;&gt;Register/Login&lt;/li&gt;&lt;li style=&quot;text-align: justify;&quot;&gt;Select/Join Equbs&lt;/li&gt;&lt;li style=&quot;text-align: justify;&quot;&gt;Pay&lt;/li&gt;&lt;/ul&gt;&lt;/div&gt;" style="whiteSpace=wrap;html=1;rounded=1;glass=0;strokeWidth=1;shadow=0;fillColor=#d5e8d4;strokeColor=#82b366;" vertex="1" parent="WIyWlLk6GJQsqaUBKTNV-1">
          <mxGeometry x="65" y="60" width="160" height="100" as="geometry" />
        </mxCell>
        <mxCell id="IrOff0IZFetIZdWrxFY4-15" style="edgeStyle=orthogonalEdgeStyle;rounded=0;orthogonalLoop=1;jettySize=auto;html=1;entryX=0;entryY=0.5;entryDx=0;entryDy=0;" edge="1" parent="WIyWlLk6GJQsqaUBKTNV-1" source="IrOff0IZFetIZdWrxFY4-9" target="IrOff0IZFetIZdWrxFY4-10">
          <mxGeometry relative="1" as="geometry" />
        </mxCell>
        <mxCell id="IrOff0IZFetIZdWrxFY4-9" value="Application Server&lt;br&gt;&lt;div&gt;&lt;ul&gt;&lt;li style=&quot;text-align: justify;&quot;&gt;Business Logic&lt;/li&gt;&lt;li style=&quot;text-align: justify;&quot;&gt;Lottery Logic&lt;/li&gt;&lt;/ul&gt;&lt;/div&gt;" style="whiteSpace=wrap;html=1;rounded=1;glass=0;strokeWidth=1;shadow=0;fillColor=#d5e8d4;strokeColor=#82b366;" vertex="1" parent="WIyWlLk6GJQsqaUBKTNV-1">
          <mxGeometry x="320" y="60" width="160" height="100" as="geometry" />
        </mxCell>
        <mxCell id="IrOff0IZFetIZdWrxFY4-10" value="Database&lt;br&gt;&lt;div&gt;&lt;ul&gt;&lt;li style=&quot;text-align: justify;&quot;&gt;Equbs Data&lt;/li&gt;&lt;li style=&quot;text-align: justify;&quot;&gt;Equbtegnas Information&lt;/li&gt;&lt;li style=&quot;text-align: justify;&quot;&gt;Payments and Its Records&lt;/li&gt;&lt;/ul&gt;&lt;/div&gt;" style="whiteSpace=wrap;html=1;rounded=1;glass=0;strokeWidth=1;shadow=0;fillColor=#d5e8d4;strokeColor=#82b366;" vertex="1" parent="WIyWlLk6GJQsqaUBKTNV-1">
          <mxGeometry x="560" y="60" width="190" height="100" as="geometry" />
        </mxCell>
        <mxCell id="IrOff0IZFetIZdWrxFY4-19" style="edgeStyle=orthogonalEdgeStyle;rounded=0;orthogonalLoop=1;jettySize=auto;html=1;entryX=0.25;entryY=1;entryDx=0;entryDy=0;" edge="1" parent="WIyWlLk6GJQsqaUBKTNV-1" source="IrOff0IZFetIZdWrxFY4-11" target="IrOff0IZFetIZdWrxFY4-9">
          <mxGeometry relative="1" as="geometry" />
        </mxCell>
        <mxCell id="IrOff0IZFetIZdWrxFY4-11" value="Portal/Admin Dashboard&lt;br&gt;&lt;div&gt;&lt;ul&gt;&lt;li style=&quot;text-align: justify;&quot;&gt;Manage Equbs&lt;/li&gt;&lt;li style=&quot;text-align: justify;&quot;&gt;Manage Equbtegnas&lt;/li&gt;&lt;li style=&quot;text-align: justify;&quot;&gt;Monitor Payments Records&lt;/li&gt;&lt;/ul&gt;&lt;/div&gt;" style="whiteSpace=wrap;html=1;rounded=1;glass=0;strokeWidth=1;shadow=0;fillColor=#d5e8d4;strokeColor=#82b366;" vertex="1" parent="WIyWlLk6GJQsqaUBKTNV-1">
          <mxGeometry x="50" y="250" width="190" height="95" as="geometry" />
        </mxCell>
      </root>
    </mxGraphModel>
  </diagram>
</mxfile>
